<svg width="29" height="36" viewBox="0 0 29 36" fill="none" xmlns="http://www.w3.org/2000/svg">
<path fill-rule="evenodd" clip-rule="evenodd" d="M7.68799 17.9375C7.68799 18.2773 7.82298 18.6032 8.06326 18.8435C8.30354 19.0838 8.62943 19.2188 8.96924 19.2188H23.8138L18.3121 24.7179C18.0715 24.9585 17.9364 25.2848 17.9364 25.625C17.9364 25.9652 18.0715 26.2915 18.3121 26.5321C18.5527 26.7727 18.879 26.9079 19.2192 26.9079C19.5595 26.9079 19.8858 26.7727 20.1264 26.5321L27.8139 18.8446C27.9332 18.7256 28.0278 18.5842 28.0924 18.4286C28.157 18.2729 28.1903 18.106 28.1903 17.9375C28.1903 17.769 28.157 17.6021 28.0924 17.4464C28.0278 17.2908 27.9332 17.1494 27.8139 17.0304L20.1264 9.34287C19.8858 9.10229 19.5595 8.96713 19.2192 8.96713C18.879 8.96713 18.5527 9.10229 18.3121 9.34287C18.0715 9.58346 17.9364 9.90976 17.9364 10.25C17.9364 10.5902 18.0715 10.9165 18.3121 11.1571L23.8138 16.6562H8.96924C8.62943 16.6562 8.30354 16.7912 8.06326 17.0315C7.82298 17.2718 7.68799 17.5977 7.68799 17.9375ZM1.28174 35.875C0.94193 35.875 0.616039 35.74 0.375758 35.4997C0.135477 35.2594 0.000488281 34.9336 0.000488281 34.5938V1.28125C0.000488281 0.941441 0.135477 0.61555 0.375758 0.375269C0.616039 0.134988 0.94193 0 1.28174 0C1.62155 0 1.94744 0.134988 2.18772 0.375269C2.428 0.61555 2.56299 0.941441 2.56299 1.28125V34.5938C2.56299 34.9336 2.428 35.2594 2.18772 35.4997C1.94744 35.74 1.62155 35.875 1.28174 35.875Z" fill="#18191F"/>
</svg>
