<svg width="29" height="36" viewBox="0 0 29 36" fill="none" xmlns="http://www.w3.org/2000/svg">
<path fill-rule="evenodd" clip-rule="evenodd" d="M20.5022 17.9375C20.5022 18.2773 20.3672 18.6032 20.1269 18.8435C19.8866 19.0838 19.5608 19.2188 19.2209 19.2188H4.37638L9.87807 24.7179C10.1187 24.9585 10.2538 25.2848 10.2538 25.625C10.2538 25.9652 10.1187 26.2915 9.87807 26.5321C9.63749 26.7727 9.31119 26.9079 8.97095 26.9079C8.63071 26.9079 8.30441 26.7727 8.06382 26.5321L0.376322 18.8446C0.257004 18.7256 0.162338 18.5842 0.0977478 18.4286C0.0331554 18.2729 -9.34601e-05 18.106 -9.34601e-05 17.9375C-9.34601e-05 17.769 0.0331554 17.6021 0.0977478 17.4464C0.162338 17.2908 0.257004 17.1494 0.376322 17.0304L8.06382 9.34287C8.30441 9.10229 8.63071 8.96713 8.97095 8.96713C9.31119 8.96713 9.63749 9.10229 9.87807 9.34287C10.1187 9.58346 10.2538 9.90976 10.2538 10.25C10.2538 10.5902 10.1187 10.9165 9.87807 11.1571L4.37638 16.6562H19.2209C19.5608 16.6562 19.8866 16.7912 20.1269 17.0315C20.3672 17.2718 20.5022 17.5977 20.5022 17.9375ZM26.9084 35.875C27.2483 35.875 27.5741 35.74 27.8144 35.4997C28.0547 35.2594 28.1897 34.9336 28.1897 34.5938V1.28125C28.1897 0.941441 28.0547 0.61555 27.8144 0.375269C27.5741 0.134988 27.2483 0 26.9084 0C26.5686 0 26.2427 0.134988 26.0025 0.375269C25.7622 0.61555 25.6272 0.941441 25.6272 1.28125V34.5938C25.6272 34.9336 25.7622 35.2594 26.0025 35.4997C26.2427 35.74 26.5686 35.875 26.9084 35.875Z" fill="#18191F"/>
</svg>
