<svg width="21" height="21" viewBox="0 0 21 21" fill="none" xmlns="http://www.w3.org/2000/svg">
<path d="M20.9002 7.18097C20.8373 6.99583 20.7216 6.83316 20.5673 6.71303C20.4131 6.5929 20.227 6.52057 20.0322 6.50497L14.3312 6.05197L11.8642 0.590968C11.7856 0.41508 11.6578 0.265689 11.4962 0.160825C11.3346 0.0559612 11.1461 0.000105879 10.9535 1.50379e-07C10.7608 -0.000105578 10.5723 0.0555428 10.4106 0.160229C10.2489 0.264916 10.1209 0.414166 10.0422 0.589968L7.57515 6.05197L1.87415 6.50497C1.68261 6.52014 1.49949 6.59018 1.34671 6.7067C1.19392 6.82322 1.07794 6.98129 1.01264 7.162C0.947345 7.34271 0.935489 7.5384 0.978496 7.72567C1.0215 7.91294 1.11755 8.08385 1.25515 8.21797L5.46815 12.325L3.97815 18.777C3.93291 18.9723 3.94741 19.1767 4.01977 19.3636C4.09213 19.5506 4.21902 19.7115 4.38395 19.8254C4.54889 19.9394 4.74427 20.0011 4.94474 20.0026C5.1452 20.0042 5.3415 19.9454 5.50815 19.834L10.9532 16.204L16.3982 19.834C16.5685 19.9471 16.7694 20.0053 16.9738 20.0008C17.1782 19.9963 17.3763 19.9293 17.5415 19.8089C17.7068 19.6884 17.8311 19.5203 17.8979 19.327C17.9647 19.1338 17.9707 18.9247 17.9152 18.728L16.0862 12.328L20.6222 8.24597C20.9192 7.97797 21.0282 7.55997 20.9002 7.18097Z" fill="#31D37A"/>
</svg>
